{"title":"Journey 2 The Mysterious Island[2012]ENG[BRRip]XviD-{RedDragon}","uid":7318804,"size":785053772,"categoryP":"video","categoryS":"movies","magnet":"?xt=urn:btih:563799a5b301973919802c29344ae553c9983744&amp;dn=Journey+2+The+Mysterious+Island%5B2012%5DENG%5BBRRip%5DXviD-%7BRedDragon%7D&amp;tr=udp%3A%2F%2Ftracker.openbittorrent.com%3A80&amp;tr=udp%3A%2F%2Fopen.demonii.com%3A1337&amp;tr=udp%3A%2F%2Ftracker.coppersurfer.tk%3A6969&amp;tr=udp%3A%2F%2Fexodus.desync.com%3A6969","seeders":1,"leechers":0,"uploader":"RedDr4gon","files":13,"time":1338564866,"description":"\n\nGeneral.\n\nComplete name                    : Journey 2 The Mysterious Island[2012]ENG[BRRip]XviD-{RedDragon}.mp4\nFormat                           : MPEG-4\nFormat profile                   : Base Media / Version 2\nCodec ID                         : mp42\nFile size                        : 749 MiB\nDuration                         : 1h 34mn\nOverall bit rate                 : 1,111 Kbps\nIMDB Rating                      : 5.8/10\nIMDB Link                        : http://www.imdb.com/title/tt1397514/\n\n\nVideo.\n\nID                               : 1\nFormat                           : MPEG-4 Visual\nFormat profile                   : Simple@L1\nFormat settings, BVOP            : No\nFormat settings, QPel            : No\nFormat settings, GMC             : No warppoints\nFormat settings, Matrix          : Default (H.263)\nCodec ID                         : 20\nDuration                         : 1h 34mn\nBit rate mode                    : Variable\nBit rate                         : 948 Kbps\nMaximum bit rate                 : 6 313 Kbps\nWidth                            : 640 pixels\nHeight                           : 352 pixels\nDisplay aspect ratio             : 16:9\nFrame rate mode                  : Variable\nFrame rate                       : 23.976 fps\nMinimum frame rate               : 23.974 fps\nMaximum frame rate               : 23.981 fps\nColor space                      : YUV\nChroma subsampling               : 4:2:0\nBit depth                        : 8 bits\nScan type                        : Progressive\nBits/(Pixel*Frame)               : 0.175\nStream size                      : 638 MiB (85%)\nWriting library                  : Lavc52.94.3\nEncoded date                     : UTC 2012-06-01 05:03:15\nTagged date                      : UTC 2012-06-01 05:10:23\n\n\nAudio.\n\nID                               : 2\nFormat                           : AAC\nFormat/Info                      : Advanced Audio Codec\nFormat version                   : Version 4\nFormat profile                   : LC\nFormat settings, SBR             : No\nCodec ID                         : 40\nDuration                         : 1h 34mn\nBit rate mode                    : Variable\nBit rate                         : 160 Kbps\nMaximum bit rate                 : 181 Kbps\nChannel(s)                       : 2 channels\nChannel positions                : Front: L R\nSampling rate                    : 48.0 KHz\nStream size                      : 108 MiB (14%)\nEncoded date                     : UTC 2012-06-01 05:03:15\nTagged date                      : UTC 2012-06-01 05:10:23\n","torrent":{"xt":"urn:btih:563799a5b301973919802c29344ae553c9983744","amp;dn":"Journey+2+The+Mysterious+Island%5B2012%5DENG%5BBRRip%5DXviD-%7BRedDragon%7D","amp;tr":["udp%3A%2F%2Ftracker.openbittorrent.com%3A80","udp%3A%2F%2Fopen.demonii.com%3A1337","udp%3A%2F%2Ftracker.coppersurfer.tk%3A6969","udp%3A%2F%2Fexodus.desync.com%3A6969"],"infoHash":"563799a5b301973919802c29344ae553c9983744","infoHashBuffer":{"type":"Buffer","data":[86,55,153,165,179,1,151,57,25,128,44,41,52,74,229,83,201,152,55,68]},"announce":[],"urlList":[]}}